<?xml version="1.0" encoding="utf-8"?>
<!-- Generator: Adobe Illustrator 25.4.1, SVG Export Plug-In . SVG Version: 6.00 Build 0)  -->
<svg version="1.1" id="레이어_1" xmlns="http://www.w3.org/2000/svg" xmlns:xlink="http://www.w3.org/1999/xlink" x="0px"
	 y="0px" viewBox="0 0 200 200" style="enable-background:new 0 0 200 200;" xml:space="preserve">
<style type="text/css">
	.st0{fill:#FBB040;}
</style>
<g>
	<path class="st0" d="M72.51,102.04c1.32,20.41,18.81,36.57,39.27,36.6c6.66,0.01,12.99-1.59,18.65-4.61
		c6.68-3.56,14.94-2.09,20.38,3.17l0.13,0.13c8.69,8.41,6.72,22.89-3.95,28.59c-11.99,6.41-25.59,9.46-39.65,8.64
		c-37.95-2.23-68.76-33.32-70.65-71.29C34.54,60,69.05,24.18,111.85,24.18c13.95,0,27.47,3.92,39.15,11.07
		c10.32,6.31,11.46,20.88,2.29,28.78l0,0c-5.81,5-14.28,5.98-20.79,1.93c-6.19-3.85-13.33-5.94-20.65-5.94
		C89.27,60.01,71.03,79.15,72.51,102.04z"/>
</g>
<path class="st0" d="M93.41,13.67L93.41,13.67c5.28,0,9.57,4.28,9.57,9.57v154.89c0,5.28-4.28,9.57-9.57,9.57h0
	c-5.28,0-9.57-4.28-9.57-9.57V23.24C83.85,17.96,88.13,13.67,93.41,13.67z"/>
<path class="st0" d="M122.41,13.67L122.41,13.67c5.28,0,9.57,4.28,9.57,9.57v154.89c0,5.28-4.28,9.57-9.57,9.57h0
	c-5.28,0-9.57-4.28-9.57-9.57V23.24C112.85,17.96,117.13,13.67,122.41,13.67z"/>
</svg>
